<svg width="512" height="512" viewBox="0 0 512 512" fill="none" xmlns="http://www.w3.org/2000/svg">
<rect width="512" height="512" fill="#1E1E1E"/>
<rect x="80" y="80" width="351" height="351" rx="90" fill="#D9D9D9"/>
<g opacity="0.67">
<mask id="mask0_0_1" style="mask-type:luminance" maskUnits="userSpaceOnUse" x="31" y="31" width="449" height="449">
<rect width="449" height="449" transform="translate(31 31)" fill="white"/>
<rect x="107" y="107" width="297" height="297" rx="148.5" fill="black"/>
</mask>
<g mask="url(#mask0_0_1)">
<g filter="url(#filter0_f_0_1)">
<path d="M107 257.5C107 175.486 173.486 109 255.5 109V109C337.514 109 404 175.486 404 257.5V257.5C404 339.514 337.514 406 255.5 406V406C173.486 406 107 339.514 107 257.5V257.5Z" fill="black" fill-opacity="0.04" style="mix-blend-mode:hard-light"/>
</g>
</g>
</g>
<path d="M107 255.5C107 173.486 173.486 107 255.5 107V107C337.514 107 404 173.486 404 255.5V255.5C404 337.514 337.514 404 255.5 404V404C173.486 404 107 337.514 107 255.5V255.5Z" fill="#333333" style="mix-blend-mode:color-dodge"/>
<path d="M107 255.5C107 173.486 173.486 107 255.5 107V107C337.514 107 404 173.486 404 255.5V255.5C404 337.514 337.514 404 255.5 404V404C173.486 404 107 337.514 107 255.5V255.5Z" fill="#A3A3A3" fill-opacity="0.5"/>
<path d="M107 255.5C107 173.486 173.486 107 255.5 107V107C337.514 107 404 173.486 404 255.5V255.5C404 337.514 337.514 404 255.5 404V404C173.486 404 107 337.514 107 255.5V255.5Z" fill="url(#paint0_linear_0_1)" style="mix-blend-mode:plus-darker"/>
<rect x="107" y="107" width="297" height="297" rx="148.5" fill="black" fill-opacity="0.01"/>
<path d="M255.5 107V255.5L126.895 329.75L255.5 107Z" fill="#E4E4E4" fill-opacity="0.5"/>
<path d="M127 329.375L255.605 255.125L384.21 329.375L127 329.375Z" fill="#8C8C8C" fill-opacity="0.5"/>
<path d="M383.907 329.75L255.302 255.5L255.302 107L383.907 329.75Z" fill="#BCBCBC" fill-opacity="0.5"/>
<defs>
<filter id="filter0_f_0_1" x="67" y="69" width="377" height="377" filterUnits="userSpaceOnUse" color-interpolation-filters="sRGB">
<feFlood flood-opacity="0" result="BackgroundImageFix"/>
<feBlend mode="normal" in="SourceGraphic" in2="BackgroundImageFix" result="shape"/>
<feGaussianBlur stdDeviation="10" result="effect1_foregroundBlur_0_1"/>
</filter>
<linearGradient id="paint0_linear_0_1" x1="255.5" y1="107" x2="255.5" y2="404" gradientUnits="userSpaceOnUse">
<stop stop-color="#FAFAFA"/>
<stop offset="0.5" stop-color="#F7F7F7"/>
<stop offset="1" stop-color="#F9F9F9"/>
</linearGradient>
</defs>
</svg>
