<svg width="550" height="154" viewBox="0 0 550 154" fill="none" xmlns="http://www.w3.org/2000/svg">
<path d="M62.583 94.104L44.151 48.344C43.511 46.8507 42.8923 45.0587 42.295 42.968C42.039 43.992 41.7617 44.9733 41.463 45.912C41.1643 46.808 40.8443 47.64 40.503 48.408L22.071 94.104H62.583ZM82.615 127H77.559C76.9617 127 76.471 126.851 76.087 126.552C75.703 126.211 75.4043 125.784 75.191 125.272L64.567 98.968H20.087L9.463 125.272C9.29233 125.741 8.99367 126.147 8.567 126.488C8.14033 126.829 7.62833 127 7.031 127H2.039L39.095 36.44H45.559L82.615 127ZM100.07 78.68C101.051 76.0773 102.161 73.7733 103.398 71.768C104.678 69.72 106.129 67.992 107.75 66.584C109.414 65.176 111.249 64.1093 113.254 63.384C115.302 62.616 117.563 62.232 120.038 62.232C121.361 62.232 122.662 62.36 123.942 62.616C125.222 62.8293 126.353 63.2347 127.334 63.832L126.822 68.056C126.609 68.7387 126.203 69.08 125.606 69.08C125.094 69.08 124.305 68.9307 123.238 68.632C122.214 68.3333 120.849 68.184 119.142 68.184C116.667 68.184 114.47 68.568 112.55 69.336C110.673 70.0613 108.966 71.1707 107.43 72.664C105.937 74.1573 104.614 76.0133 103.462 78.232C102.353 80.408 101.329 82.9253 100.39 85.784V127H94.246V63.32H97.51C98.2353 63.32 98.7473 63.4693 99.046 63.768C99.3447 64.0667 99.5367 64.5787 99.622 65.304L100.07 78.68ZM178.687 71.832C178.474 72.0453 178.26 72.2373 178.047 72.408C177.876 72.536 177.62 72.6 177.279 72.6C176.852 72.6 176.276 72.3227 175.551 71.768C174.826 71.1707 173.844 70.5307 172.607 69.848C171.37 69.1653 169.812 68.5467 167.935 67.992C166.1 67.3947 163.86 67.096 161.215 67.096C157.546 67.096 154.282 67.7573 151.423 69.08C148.607 70.36 146.218 72.216 144.255 74.648C142.292 77.08 140.799 80.024 139.775 83.48C138.794 86.936 138.303 90.8187 138.303 95.128C138.303 99.608 138.815 103.576 139.839 107.032C140.906 110.488 142.399 113.411 144.319 115.8C146.239 118.147 148.564 119.939 151.295 121.176C154.026 122.413 157.055 123.032 160.383 123.032C163.455 123.032 166.015 122.669 168.063 121.944C170.154 121.219 171.86 120.429 173.183 119.576C174.548 118.723 175.615 117.933 176.383 117.208C177.151 116.483 177.791 116.12 178.303 116.12C178.815 116.12 179.242 116.333 179.583 116.76L181.183 118.808C180.202 120.088 178.964 121.283 177.471 122.392C175.978 123.501 174.292 124.461 172.415 125.272C170.538 126.083 168.49 126.701 166.271 127.128C164.095 127.597 161.812 127.832 159.423 127.832C155.37 127.832 151.658 127.107 148.287 125.656C144.959 124.163 142.079 122.029 139.647 119.256C137.258 116.44 135.38 113.005 134.015 108.952C132.692 104.899 132.031 100.291 132.031 95.128C132.031 90.264 132.671 85.8267 133.951 81.816C135.231 77.8053 137.108 74.3493 139.583 71.448C142.058 68.5467 145.066 66.3067 148.607 64.728C152.191 63.1067 156.287 62.296 160.895 62.296C165.034 62.296 168.703 62.9573 171.903 64.28C175.103 65.6027 177.898 67.3947 180.287 69.656L178.687 71.832ZM204.593 127H198.001V36.44H204.593V127ZM233.32 78.68C234.301 76.0773 235.411 73.7733 236.648 71.768C237.928 69.72 239.379 67.992 241 66.584C242.664 65.176 244.499 64.1093 246.504 63.384C248.552 62.616 250.813 62.232 253.288 62.232C254.611 62.232 255.912 62.36 257.192 62.616C258.472 62.8293 259.603 63.2347 260.584 63.832L260.072 68.056C259.859 68.7387 259.453 69.08 258.856 69.08C258.344 69.08 257.555 68.9307 256.488 68.632C255.464 68.3333 254.099 68.184 252.392 68.184C249.917 68.184 247.72 68.568 245.8 69.336C243.923 70.0613 242.216 71.1707 240.68 72.664C239.187 74.1573 237.864 76.0133 236.712 78.232C235.603 80.408 234.579 82.9253 233.64 85.784V127H227.496V63.32H230.76C231.485 63.32 231.997 63.4693 232.296 63.768C232.595 64.0667 232.787 64.5787 232.872 65.304L233.32 78.68ZM279.53 63.32V127H273.45V63.32H279.53ZM282.154 41.368C282.154 42.136 281.983 42.8613 281.642 43.544C281.343 44.184 280.938 44.76 280.426 45.272C279.914 45.784 279.317 46.1893 278.634 46.488C277.951 46.7867 277.226 46.936 276.458 46.936C275.69 46.936 274.965 46.7867 274.282 46.488C273.599 46.1893 273.002 45.784 272.49 45.272C271.978 44.76 271.573 44.184 271.274 43.544C270.975 42.8613 270.826 42.136 270.826 41.368C270.826 40.6 270.975 39.8747 271.274 39.192C271.573 38.4667 271.978 37.848 272.49 37.336C273.002 36.824 273.599 36.4187 274.282 36.12C274.965 35.8213 275.69 35.672 276.458 35.672C277.226 35.672 277.951 35.8213 278.634 36.12C279.317 36.4187 279.914 36.824 280.426 37.336C280.938 37.848 281.343 38.4667 281.642 39.192C281.983 39.8747 282.154 40.6 282.154 41.368ZM336.254 71.192C335.913 71.7893 335.422 72.088 334.782 72.088C334.313 72.088 333.715 71.832 332.99 71.32C332.265 70.7653 331.283 70.168 330.046 69.528C328.851 68.8453 327.358 68.248 325.566 67.736C323.774 67.1813 321.598 66.904 319.038 66.904C316.734 66.904 314.622 67.2453 312.702 67.928C310.825 68.568 309.203 69.4427 307.838 70.552C306.515 71.6613 305.491 72.9627 304.766 74.456C304.041 75.9067 303.678 77.4427 303.678 79.064C303.678 81.0693 304.19 82.7333 305.214 84.056C306.238 85.3787 307.561 86.5093 309.182 87.448C310.846 88.3867 312.745 89.1973 314.878 89.88C317.011 90.5627 319.166 91.2453 321.342 91.928C323.561 92.6107 325.737 93.3787 327.87 94.232C330.003 95.0427 331.881 96.0667 333.502 97.304C335.166 98.5413 336.51 100.056 337.534 101.848C338.558 103.64 339.07 105.816 339.07 108.376C339.07 111.149 338.579 113.731 337.598 116.12C336.617 118.509 335.166 120.579 333.246 122.328C331.369 124.077 329.043 125.464 326.27 126.488C323.497 127.512 320.318 128.024 316.734 128.024C312.254 128.024 308.393 127.32 305.15 125.912C301.907 124.461 299.006 122.584 296.446 120.28L297.854 118.104C298.067 117.763 298.302 117.507 298.558 117.336C298.857 117.165 299.241 117.08 299.71 117.08C300.265 117.08 300.926 117.421 301.694 118.104C302.505 118.787 303.571 119.533 304.894 120.344C306.217 121.112 307.838 121.837 309.758 122.52C311.721 123.203 314.131 123.544 316.99 123.544C319.678 123.544 322.046 123.181 324.094 122.456C326.142 121.688 327.849 120.664 329.214 119.384C330.579 118.104 331.603 116.611 332.286 114.904C333.011 113.155 333.374 111.32 333.374 109.4C333.374 107.267 332.862 105.496 331.838 104.088C330.814 102.68 329.47 101.485 327.806 100.504C326.142 99.5227 324.243 98.6907 322.11 98.008C320.019 97.3253 317.865 96.6427 315.646 95.96C313.427 95.2773 311.251 94.5307 309.118 93.72C307.027 92.9093 305.15 91.8853 303.486 90.648C301.822 89.4107 300.478 87.9173 299.454 86.168C298.43 84.376 297.918 82.1573 297.918 79.512C297.918 77.2507 298.409 75.0747 299.39 72.984C300.371 70.8933 301.758 69.0587 303.55 67.48C305.385 65.9013 307.603 64.6427 310.206 63.704C312.809 62.7653 315.731 62.296 318.974 62.296C322.857 62.296 326.291 62.8507 329.278 63.96C332.307 65.0693 335.059 66.776 337.534 69.08L336.254 71.192ZM473.699 81.688C473.699 88.6853 472.654 95.0427 470.563 100.76C468.472 106.435 465.528 111.299 461.731 115.352C457.934 119.363 453.368 122.477 448.035 124.696C442.744 126.872 436.899 127.96 430.499 127.96C424.099 127.96 418.254 126.872 412.963 124.696C407.672 122.477 403.128 119.363 399.331 115.352C395.534 111.299 392.59 106.435 390.499 100.76C388.408 95.0427 387.363 88.6853 387.363 81.688C387.363 74.7333 388.408 68.4187 390.499 62.744C392.59 57.0267 395.534 52.1627 399.331 48.152C403.128 44.0987 407.672 40.9627 412.963 38.744C418.254 36.5253 424.099 35.416 430.499 35.416C436.899 35.416 442.744 36.5253 448.035 38.744C453.368 40.92 457.934 44.0347 461.731 48.088C465.528 52.1413 468.472 57.0267 470.563 62.744C472.654 68.4187 473.699 74.7333 473.699 81.688ZM466.915 81.688C466.915 75.3733 466.04 69.6987 464.291 64.664C462.542 59.6293 460.067 55.3627 456.867 51.864C453.667 48.3653 449.827 45.6987 445.347 43.864C440.867 41.9867 435.918 41.048 430.499 41.048C425.123 41.048 420.195 41.9867 415.715 43.864C411.235 45.6987 407.374 48.3653 404.131 51.864C400.931 55.3627 398.435 59.6293 396.643 64.664C394.894 69.6987 394.019 75.3733 394.019 81.688C394.019 88.0453 394.894 93.7413 396.643 98.776C398.435 103.768 400.931 108.013 404.131 111.512C407.374 115.011 411.235 117.677 415.715 119.512C420.195 121.347 425.123 122.264 430.499 122.264C435.918 122.264 440.867 121.347 445.347 119.512C449.827 117.677 453.667 115.011 456.867 111.512C460.067 108.013 462.542 103.768 464.291 98.776C466.04 93.7413 466.915 88.0453 466.915 81.688ZM538.469 47.448C538.085 48.1733 537.53 48.536 536.805 48.536C536.25 48.536 535.525 48.152 534.629 47.384C533.776 46.5733 532.602 45.6987 531.109 44.76C529.616 43.7787 527.738 42.8827 525.477 42.072C523.258 41.2613 520.506 40.856 517.221 40.856C513.936 40.856 511.034 41.3253 508.517 42.264C506.042 43.2027 503.952 44.4827 502.245 46.104C500.581 47.7253 499.301 49.6027 498.405 51.736C497.552 53.8693 497.125 56.1093 497.125 58.456C497.125 61.528 497.765 64.0667 499.045 66.072C500.368 68.0773 502.096 69.784 504.229 71.192C506.362 72.6 508.773 73.7947 511.461 74.776C514.192 75.7147 516.986 76.6533 519.845 77.592C522.704 78.5307 525.477 79.576 528.165 80.728C530.896 81.8373 533.328 83.2453 535.461 84.952C537.594 86.6587 539.301 88.7707 540.581 91.288C541.904 93.7627 542.565 96.856 542.565 100.568C542.565 104.365 541.904 107.949 540.581 111.32C539.301 114.648 537.424 117.549 534.949 120.024C532.474 122.499 529.445 124.461 525.861 125.912C522.277 127.32 518.181 128.024 513.573 128.024C507.6 128.024 502.458 126.979 498.149 124.888C493.84 122.755 490.064 119.853 486.821 116.184L488.613 113.368C489.125 112.728 489.722 112.408 490.405 112.408C490.789 112.408 491.28 112.664 491.877 113.176C492.474 113.688 493.2 114.328 494.053 115.096C494.906 115.821 495.93 116.632 497.125 117.528C498.32 118.381 499.706 119.192 501.285 119.96C502.864 120.685 504.677 121.304 506.725 121.816C508.773 122.328 511.098 122.584 513.701 122.584C517.285 122.584 520.485 122.051 523.301 120.984C526.117 119.875 528.485 118.381 530.405 116.504C532.368 114.627 533.861 112.408 534.885 109.848C535.909 107.245 536.421 104.472 536.421 101.528C536.421 98.328 535.76 95.704 534.437 93.656C533.157 91.5653 531.45 89.8373 529.317 88.472C527.184 87.064 524.752 85.8907 522.021 84.952C519.333 84.0133 516.56 83.096 513.701 82.2C510.842 81.304 508.048 80.3013 505.317 79.192C502.629 78.0827 500.218 76.6747 498.085 74.968C495.952 73.2187 494.224 71.064 492.901 68.504C491.621 65.9013 490.981 62.6587 490.981 58.776C490.981 55.7467 491.557 52.824 492.709 50.008C493.861 47.192 495.546 44.7173 497.765 42.584C499.984 40.408 502.714 38.68 505.957 37.4C509.242 36.0773 512.976 35.416 517.157 35.416C521.85 35.416 526.053 36.1627 529.765 37.656C533.52 39.1493 536.933 41.432 540.005 44.504L538.469 47.448Z" fill="white"/>
</svg>
