<svg width="560" height="154" viewBox="0 0 560 154" fill="none" xmlns="http://www.w3.org/2000/svg">
<path d="M62.6455 94.104L44.2135 48.344C43.5735 46.8507 42.9548 45.0587 42.3575 42.968C42.1015 43.992 41.8242 44.9733 41.5255 45.912C41.2268 46.808 40.9068 47.64 40.5655 48.408L22.1335 94.104H62.6455ZM82.6775 127H77.6215C77.0242 127 76.5335 126.851 76.1495 126.552C75.7655 126.211 75.4668 125.784 75.2535 125.272L64.6295 98.968H20.1495L9.5255 125.272C9.35483 125.741 9.05617 126.147 8.6295 126.488C8.20283 126.829 7.69083 127 7.0935 127H2.1015L39.1575 36.44H45.6215L82.6775 127ZM100.133 78.68C101.114 76.0773 102.223 73.7733 103.461 71.768C104.741 69.72 106.191 67.992 107.813 66.584C109.477 65.176 111.311 64.1093 113.317 63.384C115.365 62.616 117.626 62.232 120.101 62.232C121.423 62.232 122.725 62.36 124.005 62.616C125.285 62.8293 126.415 63.2347 127.397 63.832L126.885 68.056C126.671 68.7387 126.266 69.08 125.669 69.08C125.157 69.08 124.367 68.9307 123.301 68.632C122.277 68.3333 120.911 68.184 119.205 68.184C116.73 68.184 114.533 68.568 112.613 69.336C110.735 70.0613 109.029 71.1707 107.493 72.664C105.999 74.1573 104.677 76.0133 103.525 78.232C102.415 80.408 101.391 82.9253 100.453 85.784V127H94.3085V63.32H97.5725C98.2978 63.32 98.8098 63.4693 99.1085 63.768C99.4072 64.0667 99.5992 64.5787 99.6845 65.304L100.133 78.68ZM178.75 71.832C178.536 72.0453 178.323 72.2373 178.11 72.408C177.939 72.536 177.683 72.6 177.342 72.6C176.915 72.6 176.339 72.3227 175.614 71.768C174.888 71.1707 173.907 70.5307 172.67 69.848C171.432 69.1653 169.875 68.5467 167.998 67.992C166.163 67.3947 163.923 67.096 161.278 67.096C157.608 67.096 154.344 67.7573 151.486 69.08C148.67 70.36 146.28 72.216 144.318 74.648C142.355 77.08 140.862 80.024 139.838 83.48C138.856 86.936 138.366 90.8187 138.366 95.128C138.366 99.608 138.878 103.576 139.902 107.032C140.968 110.488 142.462 113.411 144.382 115.8C146.302 118.147 148.627 119.939 151.358 121.176C154.088 122.413 157.118 123.032 160.446 123.032C163.518 123.032 166.078 122.669 168.126 121.944C170.216 121.219 171.923 120.429 173.246 119.576C174.611 118.723 175.678 117.933 176.446 117.208C177.214 116.483 177.854 116.12 178.366 116.12C178.878 116.12 179.304 116.333 179.646 116.76L181.246 118.808C180.264 120.088 179.027 121.283 177.534 122.392C176.04 123.501 174.355 124.461 172.478 125.272C170.6 126.083 168.552 126.701 166.334 127.128C164.158 127.597 161.875 127.832 159.486 127.832C155.432 127.832 151.72 127.107 148.35 125.656C145.022 124.163 142.142 122.029 139.71 119.256C137.32 116.44 135.443 113.005 134.078 108.952C132.755 104.899 132.094 100.291 132.094 95.128C132.094 90.264 132.734 85.8267 134.014 81.816C135.294 77.8053 137.171 74.3493 139.646 71.448C142.12 68.5467 145.128 66.3067 148.67 64.728C152.254 63.1067 156.35 62.296 160.958 62.296C165.096 62.296 168.766 62.9573 171.966 64.28C175.166 65.6027 177.96 67.3947 180.35 69.656L178.75 71.832ZM204.656 127H198.064V36.44H204.656V127ZM233.383 78.68C234.364 76.0773 235.473 73.7733 236.711 71.768C237.991 69.72 239.441 67.992 241.063 66.584C242.727 65.176 244.561 64.1093 246.567 63.384C248.615 62.616 250.876 62.232 253.351 62.232C254.673 62.232 255.975 62.36 257.255 62.616C258.535 62.8293 259.665 63.2347 260.647 63.832L260.135 68.056C259.921 68.7387 259.516 69.08 258.919 69.08C258.407 69.08 257.617 68.9307 256.551 68.632C255.527 68.3333 254.161 68.184 252.455 68.184C249.98 68.184 247.783 68.568 245.863 69.336C243.985 70.0613 242.279 71.1707 240.743 72.664C239.249 74.1573 237.927 76.0133 236.775 78.232C235.665 80.408 234.641 82.9253 233.703 85.784V127H227.559V63.32H230.823C231.548 63.32 232.06 63.4693 232.359 63.768C232.657 64.0667 232.849 64.5787 232.935 65.304L233.383 78.68ZM279.593 63.32V127H273.513V63.32H279.593ZM282.217 41.368C282.217 42.136 282.046 42.8613 281.705 43.544C281.406 44.184 281.001 44.76 280.489 45.272C279.977 45.784 279.379 46.1893 278.697 46.488C278.014 46.7867 277.289 46.936 276.521 46.936C275.753 46.936 275.027 46.7867 274.345 46.488C273.662 46.1893 273.065 45.784 272.553 45.272C272.041 44.76 271.635 44.184 271.337 43.544C271.038 42.8613 270.889 42.136 270.889 41.368C270.889 40.6 271.038 39.8747 271.337 39.192C271.635 38.4667 272.041 37.848 272.553 37.336C273.065 36.824 273.662 36.4187 274.345 36.12C275.027 35.8213 275.753 35.672 276.521 35.672C277.289 35.672 278.014 35.8213 278.697 36.12C279.379 36.4187 279.977 36.824 280.489 37.336C281.001 37.848 281.406 38.4667 281.705 39.192C282.046 39.8747 282.217 40.6 282.217 41.368ZM336.317 71.192C335.975 71.7893 335.485 72.088 334.845 72.088C334.375 72.088 333.778 71.832 333.053 71.32C332.327 70.7653 331.346 70.168 330.109 69.528C328.914 68.8453 327.421 68.248 325.629 67.736C323.837 67.1813 321.661 66.904 319.101 66.904C316.797 66.904 314.685 67.2453 312.765 67.928C310.887 68.568 309.266 69.4427 307.901 70.552C306.578 71.6613 305.554 72.9627 304.829 74.456C304.103 75.9067 303.741 77.4427 303.741 79.064C303.741 81.0693 304.253 82.7333 305.277 84.056C306.301 85.3787 307.623 86.5093 309.245 87.448C310.909 88.3867 312.807 89.1973 314.941 89.88C317.074 90.5627 319.229 91.2453 321.405 91.928C323.623 92.6107 325.799 93.3787 327.933 94.232C330.066 95.0427 331.943 96.0667 333.565 97.304C335.229 98.5413 336.573 100.056 337.597 101.848C338.621 103.64 339.133 105.816 339.133 108.376C339.133 111.149 338.642 113.731 337.661 116.12C336.679 118.509 335.229 120.579 333.309 122.328C331.431 124.077 329.106 125.464 326.333 126.488C323.559 127.512 320.381 128.024 316.797 128.024C312.317 128.024 308.455 127.32 305.213 125.912C301.97 124.461 299.069 122.584 296.509 120.28L297.917 118.104C298.13 117.763 298.365 117.507 298.621 117.336C298.919 117.165 299.303 117.08 299.773 117.08C300.327 117.08 300.989 117.421 301.757 118.104C302.567 118.787 303.634 119.533 304.957 120.344C306.279 121.112 307.901 121.837 309.821 122.52C311.783 123.203 314.194 123.544 317.053 123.544C319.741 123.544 322.109 123.181 324.157 122.456C326.205 121.688 327.911 120.664 329.277 119.384C330.642 118.104 331.666 116.611 332.349 114.904C333.074 113.155 333.437 111.32 333.437 109.4C333.437 107.267 332.925 105.496 331.901 104.088C330.877 102.68 329.533 101.485 327.869 100.504C326.205 99.5227 324.306 98.6907 322.173 98.008C320.082 97.3253 317.927 96.6427 315.709 95.96C313.49 95.2773 311.314 94.5307 309.181 93.72C307.09 92.9093 305.213 91.8853 303.549 90.648C301.885 89.4107 300.541 87.9173 299.517 86.168C298.493 84.376 297.981 82.1573 297.981 79.512C297.981 77.2507 298.471 75.0747 299.453 72.984C300.434 70.8933 301.821 69.0587 303.613 67.48C305.447 65.9013 307.666 64.6427 310.269 63.704C312.871 62.7653 315.794 62.296 319.037 62.296C322.919 62.296 326.354 62.8507 329.341 63.96C332.37 65.0693 335.122 66.776 337.597 69.08L336.317 71.192ZM415.65 62.296C420.215 62.296 424.29 63.0853 427.874 64.664C431.5 66.2 434.551 68.3973 437.026 71.256C439.5 74.1147 441.378 77.5707 442.658 81.624C443.98 85.6347 444.642 90.136 444.642 95.128C444.642 100.12 443.98 104.621 442.658 108.632C441.378 112.643 439.5 116.077 437.026 118.936C434.551 121.795 431.5 123.992 427.874 125.528C424.29 127.064 420.215 127.832 415.65 127.832C411.084 127.832 406.988 127.064 403.362 125.528C399.778 123.992 396.727 121.795 394.21 118.936C391.735 116.077 389.836 112.643 388.514 108.632C387.234 104.621 386.594 100.12 386.594 95.128C386.594 90.136 387.234 85.6347 388.514 81.624C389.836 77.5707 391.735 74.1147 394.21 71.256C396.727 68.3973 399.778 66.2 403.362 64.664C406.988 63.0853 411.084 62.296 415.65 62.296ZM415.65 123.032C419.447 123.032 422.754 122.392 425.57 121.112C428.428 119.789 430.796 117.912 432.674 115.48C434.594 113.048 436.023 110.125 436.962 106.712C437.9 103.256 438.37 99.3947 438.37 95.128C438.37 90.904 437.9 87.064 436.962 83.608C436.023 80.152 434.594 77.208 432.674 74.776C430.796 72.3013 428.428 70.4027 425.57 69.08C422.754 67.7573 419.447 67.096 415.65 67.096C411.852 67.096 408.524 67.7573 405.666 69.08C402.85 70.4027 400.482 72.3013 398.562 74.776C396.684 77.208 395.255 80.152 394.274 83.608C393.335 87.064 392.866 90.904 392.866 95.128C392.866 99.3947 393.335 103.256 394.274 106.712C395.255 110.125 396.684 113.048 398.562 115.48C400.482 117.912 402.85 119.789 405.666 121.112C408.524 122.392 411.852 123.032 415.65 123.032ZM467.633 78.68C468.614 76.0773 469.723 73.7733 470.961 71.768C472.241 69.72 473.691 67.992 475.313 66.584C476.977 65.176 478.811 64.1093 480.817 63.384C482.865 62.616 485.126 62.232 487.601 62.232C488.923 62.232 490.225 62.36 491.505 62.616C492.785 62.8293 493.915 63.2347 494.897 63.832L494.385 68.056C494.171 68.7387 493.766 69.08 493.169 69.08C492.657 69.08 491.867 68.9307 490.801 68.632C489.777 68.3333 488.411 68.184 486.705 68.184C484.23 68.184 482.033 68.568 480.113 69.336C478.235 70.0613 476.529 71.1707 474.993 72.664C473.499 74.1573 472.177 76.0133 471.025 78.232C469.915 80.408 468.891 82.9253 467.953 85.784V127H461.809V63.32H465.073C465.798 63.32 466.31 63.4693 466.609 63.768C466.907 64.0667 467.099 64.5787 467.185 65.304L467.633 78.68ZM525.484 98.84C528.214 98.84 530.646 98.456 532.78 97.688C534.913 96.8773 536.705 95.768 538.156 94.36C539.606 92.952 540.716 91.2667 541.484 89.304C542.252 87.3413 542.636 85.1653 542.636 82.776C542.636 80.3867 542.23 78.2107 541.42 76.248C540.652 74.2427 539.521 72.536 538.028 71.128C536.577 69.72 534.785 68.632 532.652 67.864C530.561 67.096 528.172 66.712 525.484 66.712C522.796 66.712 520.385 67.096 518.252 67.864C516.161 68.632 514.369 69.72 512.876 71.128C511.425 72.536 510.316 74.2427 509.548 76.248C508.78 78.2107 508.396 80.3867 508.396 82.776C508.396 85.1653 508.78 87.3413 509.548 89.304C510.316 91.2667 511.425 92.952 512.876 94.36C514.369 95.768 516.161 96.8773 518.252 97.688C520.385 98.456 522.796 98.84 525.484 98.84ZM549.292 131.288C549.292 129.283 548.758 127.683 547.692 126.488C546.668 125.251 545.281 124.291 543.532 123.608C541.782 122.925 539.756 122.456 537.452 122.2C535.19 121.901 532.801 121.688 530.284 121.56C527.809 121.432 525.313 121.304 522.796 121.176C520.278 121.048 517.91 120.792 515.692 120.408C514.07 121.048 512.577 121.795 511.212 122.648C509.846 123.459 508.673 124.397 507.692 125.464C506.71 126.531 505.942 127.683 505.388 128.92C504.833 130.2 504.556 131.565 504.556 133.016C504.556 134.893 505.025 136.621 505.964 138.2C506.945 139.821 508.353 141.208 510.188 142.36C512.065 143.555 514.348 144.493 517.036 145.176C519.724 145.859 522.817 146.2 526.316 146.2C529.558 146.2 532.566 145.837 535.34 145.112C538.156 144.387 540.588 143.363 542.636 142.04C544.726 140.717 546.348 139.139 547.5 137.304C548.694 135.469 549.292 133.464 549.292 131.288ZM555.948 66.136V68.248C555.948 69.1867 555.35 69.7627 554.156 69.976L544.428 70.68C545.622 72.3013 546.54 74.1147 547.18 76.12C547.82 78.1253 548.14 80.3013 548.14 82.648C548.14 85.72 547.585 88.5147 546.476 91.032C545.409 93.5067 543.873 95.64 541.868 97.432C539.905 99.1813 537.516 100.547 534.7 101.528C531.926 102.509 528.854 103 525.484 103C521.857 103 518.55 102.445 515.564 101.336C513.772 102.36 512.342 103.576 511.276 104.984C510.252 106.349 509.74 107.715 509.74 109.08C509.74 110.915 510.38 112.323 511.66 113.304C512.982 114.285 514.689 115.011 516.78 115.48C518.913 115.907 521.324 116.184 524.012 116.312C526.742 116.44 529.516 116.589 532.332 116.76C535.148 116.888 537.9 117.144 540.588 117.528C543.318 117.912 545.729 118.595 547.82 119.576C549.953 120.515 551.66 121.859 552.94 123.608C554.262 125.315 554.924 127.597 554.924 130.456C554.924 133.101 554.262 135.64 552.94 138.072C551.617 140.504 549.697 142.659 547.18 144.536C544.705 146.413 541.697 147.907 538.156 149.016C534.614 150.168 530.646 150.744 526.252 150.744C521.772 150.744 517.846 150.275 514.476 149.336C511.105 148.44 508.268 147.203 505.964 145.624C503.702 144.088 501.996 142.296 500.844 140.248C499.692 138.2 499.116 136.024 499.116 133.72C499.116 130.349 500.225 127.469 502.444 125.08C504.662 122.648 507.692 120.749 511.532 119.384C509.398 118.659 507.67 117.613 506.348 116.248C505.068 114.84 504.428 112.941 504.428 110.552C504.428 109.656 504.598 108.717 504.94 107.736C505.281 106.755 505.793 105.795 506.476 104.856C507.158 103.875 507.99 102.957 508.972 102.104C509.953 101.251 511.062 100.483 512.3 99.8C509.27 98.0507 506.902 95.7253 505.196 92.824C503.532 89.9227 502.7 86.5307 502.7 82.648C502.7 79.576 503.233 76.8027 504.3 74.328C505.409 71.8107 506.966 69.656 508.972 67.864C510.977 66.072 513.366 64.6853 516.14 63.704C518.956 62.7227 522.07 62.232 525.484 62.232C528.3 62.232 530.881 62.5733 533.228 63.256C535.617 63.9387 537.75 64.8987 539.628 66.136H555.948Z" fill="white"/>
</svg>
